<svg xmlns="http://www.w3.org/2000/svg" viewBox="0 0 900 1080">
  <defs>
    <linearGradient id="bg" x1="0" y1="0" x2="1" y2="1">
      <stop offset="0" stop-color="#06121f"/>
      <stop offset=".58" stop-color="#0f2f4d"/>
      <stop offset="1" stop-color="#07111f"/>
    </linearGradient>
    <linearGradient id="card" x1="0" y1="0" x2="1" y2="1">
      <stop offset="0" stop-color="#0f172a"/>
      <stop offset="1" stop-color="#111827"/>
    </linearGradient>
  </defs>
  <rect width="900" height="1080" fill="url(#bg)"/>
  <rect x="92" y="118" width="716" height="844" rx="42" fill="#020617" opacity=".9" stroke="#67e8f9" stroke-opacity=".28"/>
  <rect x="144" y="184" width="612" height="86" rx="28" fill="#0f172a"/>
  <circle cx="202" cy="227" r="22" fill="#22d3ee"/>
  <rect x="250" y="209" width="220" height="14" rx="7" fill="#e0f2fe"/>
  <rect x="250" y="238" width="148" height="12" rx="6" fill="#64748b"/>
  <rect x="144" y="330" width="275" height="190" rx="30" fill="url(#card)" stroke="#22d3ee" stroke-opacity=".24"/>
  <rect x="481" y="330" width="275" height="190" rx="30" fill="url(#card)" stroke="#22d3ee" stroke-opacity=".24"/>
  <rect x="144" y="575" width="612" height="260" rx="32" fill="url(#card)" stroke="#22d3ee" stroke-opacity=".24"/>
  <path d="M230 444h42v-42h28v42h42v28h-42v42h-28v-42h-42z" fill="#22d3ee"/>
  <path d="M535 454c26-78 118-78 144 0-23 42-50 68-72 86-22-18-49-44-72-86z" fill="#38bdf8" opacity=".9"/>
  <path d="M208 732h74l38-86 70 142 50-96h252" fill="none" stroke="#22d3ee" stroke-width="16" stroke-linecap="round" stroke-linejoin="round"/>
  <rect x="198" y="880" width="186" height="14" rx="7" fill="#67e8f9" opacity=".8"/>
  <rect x="426" y="880" width="276" height="14" rx="7" fill="#94a3b8" opacity=".5"/>
</svg>
