<svg xmlns="http://www.w3.org/2000/svg" viewBox="0 0 900 1080">
  <defs>
    <linearGradient id="bg" x1="0" y1="0" x2="1" y2="1">
      <stop offset="0" stop-color="#0f0718"/>
      <stop offset=".54" stop-color="#1e1b4b"/>
      <stop offset="1" stop-color="#03151a"/>
    </linearGradient>
    <linearGradient id="accent" x1="0" y1="0" x2="1" y2="1">
      <stop offset="0" stop-color="#fb7185"/>
      <stop offset=".5" stop-color="#a78bfa"/>
      <stop offset="1" stop-color="#22d3ee"/>
    </linearGradient>
  </defs>
  <rect width="900" height="1080" fill="url(#bg)"/>
  <rect x="96" y="120" width="708" height="840" rx="46" fill="#050816" opacity=".92" stroke="#67e8f9" stroke-opacity=".24"/>
  <rect x="155" y="178" width="590" height="94" rx="26" fill="#0f172a"/>
  <rect x="194" y="215" width="146" height="18" rx="9" fill="#f8fafc"/>
  <rect x="592" y="206" width="74" height="36" rx="18" fill="#22d3ee"/>
  <rect x="154" y="340" width="266" height="360" rx="34" fill="url(#accent)" opacity=".9"/>
  <rect x="478" y="340" width="266" height="360" rx="34" fill="#111827" stroke="#a78bfa" stroke-opacity=".38"/>
  <path d="M270 430c16-48 54-48 70 0l36 196H234z" fill="#fff7ed" opacity=".92"/>
  <path d="M582 416h58l42 210H538z" fill="url(#accent)" opacity=".75"/>
  <rect x="154" y="760" width="210" height="26" rx="13" fill="#e0f2fe"/>
  <rect x="154" y="812" width="300" height="14" rx="7" fill="#c4b5fd" opacity=".62"/>
  <rect x="154" y="856" width="190" height="52" rx="26" fill="#22d3ee"/>
  <rect x="390" y="856" width="148" height="52" rx="26" fill="transparent" stroke="#22d3ee" stroke-opacity=".65"/>
</svg>
