<svg xmlns="http://www.w3.org/2000/svg" viewBox="0 0 900 1080">
  <defs>
    <linearGradient id="bg" x1="0" y1="0" x2="1" y2="1">
      <stop offset="0" stop-color="#07111f"/>
      <stop offset="0.48" stop-color="#0b2442"/>
      <stop offset="1" stop-color="#021014"/>
    </linearGradient>
    <linearGradient id="accent" x1="0" y1="0" x2="1" y2="1">
      <stop offset="0" stop-color="#22d3ee"/>
      <stop offset="1" stop-color="#3b82f6"/>
    </linearGradient>
    <filter id="glow" x="-40%" y="-40%" width="180%" height="180%">
      <feGaussianBlur stdDeviation="18" result="blur"/>
      <feMerge><feMergeNode in="blur"/><feMergeNode in="SourceGraphic"/></feMerge>
    </filter>
  </defs>
  <rect width="900" height="1080" fill="url(#bg)"/>
  <circle cx="780" cy="190" r="180" fill="#22d3ee" opacity=".12" filter="url(#glow)"/>
  <circle cx="120" cy="900" r="210" fill="#3b82f6" opacity=".14" filter="url(#glow)"/>
  <rect x="92" y="120" width="716" height="840" rx="46" fill="#06111c" opacity=".88" stroke="#67e8f9" stroke-opacity=".35"/>
  <rect x="138" y="178" width="624" height="350" rx="30" fill="#0f253d"/>
  <path d="M138 446 292 326l92 74 124-122 254 168v82H138z" fill="url(#accent)" opacity=".72"/>
  <rect x="180" y="580" width="250" height="38" rx="19" fill="#e0f2fe"/>
  <rect x="180" y="644" width="520" height="16" rx="8" fill="#7dd3fc" opacity=".62"/>
  <rect x="180" y="686" width="454" height="16" rx="8" fill="#7dd3fc" opacity=".38"/>
  <rect x="180" y="760" width="160" height="112" rx="24" fill="#0e2f4d" stroke="#22d3ee" stroke-opacity=".38"/>
  <rect x="370" y="760" width="160" height="112" rx="24" fill="#0e2f4d" stroke="#22d3ee" stroke-opacity=".38"/>
  <rect x="560" y="760" width="160" height="112" rx="24" fill="#0e2f4d" stroke="#22d3ee" stroke-opacity=".38"/>
  <path d="M204 824h88M394 824h88M584 824h88" stroke="#67e8f9" stroke-width="12" stroke-linecap="round"/>
</svg>
