<svg xmlns="http://www.w3.org/2000/svg" viewBox="0 0 900 1080">
  <defs>
    <linearGradient id="bg" x1="0" y1="0" x2="1" y2="1">
      <stop offset="0" stop-color="#140915"/>
      <stop offset=".55" stop-color="#1e1b4b"/>
      <stop offset="1" stop-color="#041318"/>
    </linearGradient>
    <linearGradient id="a" x1="0" y1="0" x2="1" y2="1">
      <stop offset="0" stop-color="#f0abfc"/>
      <stop offset="1" stop-color="#22d3ee"/>
    </linearGradient>
  </defs>
  <rect width="900" height="1080" fill="url(#bg)"/>
  <rect x="105" y="105" width="690" height="870" rx="54" fill="#060b16" opacity=".9" stroke="#22d3ee" stroke-opacity=".28"/>
  <rect x="158" y="170" width="584" height="260" rx="34" fill="url(#a)" opacity=".78"/>
  <circle cx="298" cy="300" r="78" fill="#fff7ed" opacity=".92"/>
  <path d="M487 216v160M526 216v160M487 292h39M591 216v160" stroke="#fff7ed" stroke-width="18" stroke-linecap="round"/>
  <rect x="170" y="500" width="330" height="38" rx="19" fill="#f8fafc"/>
  <rect x="170" y="566" width="520" height="16" rx="8" fill="#c4b5fd" opacity=".62"/>
  <rect x="170" y="606" width="420" height="16" rx="8" fill="#67e8f9" opacity=".48"/>
  <rect x="170" y="700" width="560" height="92" rx="28" fill="#111827" stroke="#f0abfc" stroke-opacity=".34"/>
  <rect x="205" y="730" width="120" height="14" rx="7" fill="#f0abfc"/>
  <rect x="205" y="758" width="270" height="12" rx="6" fill="#94a3b8"/>
  <rect x="560" y="728" width="112" height="38" rx="19" fill="#22d3ee" opacity=".85"/>
  <rect x="170" y="824" width="260" height="52" rx="26" fill="#22d3ee"/>
  <rect x="456" y="824" width="180" height="52" rx="26" fill="transparent" stroke="#22d3ee" stroke-opacity=".7"/>
</svg>
